<svg version="1.0" xmlns="http://www.w3.org/2000/svg" width="682.667" height="682.667" viewBox="0 0 512 512"><path d="M17.7 1.4C9.9 4.2 3.5 11.2 1 19.6.2 22.5 0 74.7.2 215.5l.3 192 2.2 4c2.5 4.7 7.4 9.5 12.3 12.1 3.3 1.8 7.8 1.9 86.3 2.2l82.7.2.1 2.3c.1 2.8.1 37.7 0 39.4-.1 1-4.1 1.3-16.4 1.3-8.9 0-17.7.4-19.6 1-5.5 1.6-10.6 5.7-13.1 10.6-1.9 4-2.2 6.1-2.3 16.1 0 9.2.4 11.8 1.6 13.1 1.5 1.4 12.9 1.6 121.8 1.6 117.2 0 120.1 0 121.5-1.9 1.7-2.3 1.9-20 .3-25.8-1.3-4.9-6.3-10.5-11.4-12.8-3.4-1.6-6.7-1.9-21.7-1.9h-17.7v-25h153.6l2.1-2.3c1.8-1.9 2.2-3.5 2.2-8.9v-6.5l4.7-.7c5-.7 11.5-4 15-7.8 1.2-1.3 3.2-4.6 4.5-7.3l2.2-5 .1-192.8c.2-187.1.1-192.8-1.7-197-2.6-5.7-7.3-10.5-13.3-13.3l-5-2.4-235 .1C62.8.1 20.8.3 17.7 1.4z"/></svg>